<svg xmlns="http://www.w3.org/2000/svg" viewBox="0 0 553.33 147.27"><defs><style>.cls-1{fill:#1d1d1b;}.cls-2{fill:#006643;}.cls-3{fill:#fff;}</style></defs><g id="Lager_2" data-name="Lager 2"><g id="Layer_1" data-name="Layer 1"><path class="cls-1" d="M215.46,65.42l-1,9.53H190.33v-.74h.9a3.78,3.78,0,0,0,1.91-.42,1.89,1.89,0,0,0,.8-1,8.51,8.51,0,0,0,.22-2.53V52.45a9.26,9.26,0,0,0-.22-2.61,2.09,2.09,0,0,0-.89-.91,3.64,3.64,0,0,0-1.82-.39h-.9V47.8h14.48v.74h-1.18a3.78,3.78,0,0,0-1.91.42,2,2,0,0,0-.82,1,8.56,8.56,0,0,0-.22,2.53V69.74a8.82,8.82,0,0,0,.24,2.66,1.62,1.62,0,0,0,.94.85,9.65,9.65,0,0,0,2.43.18h2.26a7.74,7.74,0,0,0,3.6-.76,6.72,6.72,0,0,0,2.49-2.41,19,19,0,0,0,2-4.84Z"/><path class="cls-1" d="M233.23,67.22h-9.59l-1.14,2.64a6,6,0,0,0-.56,2.19,1.82,1.82,0,0,0,.92,1.68,8,8,0,0,0,2.67.48V75h-9v-.74A4.07,4.07,0,0,0,218.9,73a16,16,0,0,0,2.32-4.1l9.71-21.66h.38L241.1,69.5a13.8,13.8,0,0,0,2.3,4,3.22,3.22,0,0,0,1.93.72V75H232.19v-.74h.54a4.17,4.17,0,0,0,2.23-.44,1.08,1.08,0,0,0,.44-.92,2.43,2.43,0,0,0-.12-.74c0-.12-.23-.62-.61-1.51Zm-.68-1.48-4-9.35-4.17,9.35Z"/><path class="cls-1" d="M256.09,47.8l13.39,16.84V53a5.53,5.53,0,0,0-.7-3.31,3.91,3.91,0,0,0-3.22-1.12V47.8h9v.74a7,7,0,0,0-2.31.57,2.37,2.37,0,0,0-.92,1.14A7.85,7.85,0,0,0,271,53v22.6h-.68L251.92,53V70.22c0,1.57.36,2.62,1.07,3.17a3.92,3.92,0,0,0,2.46.82h.64V75h-9.63v-.74a4.4,4.4,0,0,0,3.12-.92,4.3,4.3,0,0,0,.88-3.07V51.07l-.58-.72a5.2,5.2,0,0,0-1.52-1.43,4.77,4.77,0,0,0-1.9-.38V47.8Z"/><path class="cls-1" d="M300.71,47.8v7.35H300a11.33,11.33,0,0,0-1.43-3.65,5.47,5.47,0,0,0-2.14-1.78,6.85,6.85,0,0,0-2.66-.36h-2V70.3a8.4,8.4,0,0,0,.23,2.61,2.06,2.06,0,0,0,.9.91,3.66,3.66,0,0,0,1.83.39h.9V75H281.39v-.74h.9a3.74,3.74,0,0,0,1.9-.42,1.92,1.92,0,0,0,.82-1,8.16,8.16,0,0,0,.22-2.53V49.36h-2a5.7,5.7,0,0,0-4,1.16,7.7,7.7,0,0,0-2.21,4.63h-.76V47.8Z"/><path class="cls-1" d="M319.85,60.55a13.89,13.89,0,0,1,5.43,2.19,5.81,5.81,0,0,1,2.24,4.72,6.28,6.28,0,0,1-2.46,5.07q-3,2.41-8.79,2.42h-13.8v-.74a6.33,6.33,0,0,0,2.56-.35A2.13,2.13,0,0,0,306,73a8.38,8.38,0,0,0,.27-2.77V52.57a8.45,8.45,0,0,0-.27-2.78,2,2,0,0,0-1-.91,6.61,6.61,0,0,0-2.55-.34V47.8h13a18.51,18.51,0,0,1,6.6.83,6.88,6.88,0,0,1,3.07,2.49,6.19,6.19,0,0,1,1.12,3.51,5,5,0,0,1-1.42,3.49A10.24,10.24,0,0,1,319.85,60.55Zm-7.29,1v8.7l0,1a2,2,0,0,0,2.19,2.19,6.3,6.3,0,0,0,2.95-.71,4.87,4.87,0,0,0,2.07-2.07,6.29,6.29,0,0,0,.72-3,6.61,6.61,0,0,0-.88-3.41,4.73,4.73,0,0,0-2.42-2.11A13,13,0,0,0,312.56,61.58Zm0-1.57a10.29,10.29,0,0,0,4.2-.64,4.68,4.68,0,0,0,2.07-1.8,6.46,6.46,0,0,0,0-5.91,4.49,4.49,0,0,0-2-1.76,10.9,10.9,0,0,0-4.25-.58Z"/><path class="cls-1" d="M338.39,62.58v7.6a8.45,8.45,0,0,0,.27,2.78,2,2,0,0,0,.95.91,6.36,6.36,0,0,0,2.54.34V75H328.26v-.74a6.24,6.24,0,0,0,2.55-.35,2.07,2.07,0,0,0,.94-.91,8,8,0,0,0,.28-2.77V52.57a8.08,8.08,0,0,0-.28-2.78,2,2,0,0,0-.95-.91,6.52,6.52,0,0,0-2.54-.34V47.8h12.61a27.68,27.68,0,0,1,7.21.68A7.25,7.25,0,0,1,351.8,51a6.69,6.69,0,0,1,1.45,4.29,6.37,6.37,0,0,1-2.17,5,9,9,0,0,1-3.86,1.87l6.53,9.19a14.36,14.36,0,0,0,1.82,2.22,3.42,3.42,0,0,0,1.9.68V75h-8.55l-8.75-12.37Zm0-13.32v11.9h1.14a12.74,12.74,0,0,0,4.17-.52,4.14,4.14,0,0,0,2.17-1.84,6.78,6.78,0,0,0,.79-3.47,6.29,6.29,0,0,0-1.45-4.58q-1.45-1.48-4.68-1.49Z"/><path class="cls-1" d="M355.53,47.8h14v.74h-.7a4.91,4.91,0,0,0-2.17.33,1.89,1.89,0,0,0-.84.91,9.73,9.73,0,0,0-.25,2.91V66a13.4,13.4,0,0,0,.55,4.82,4.54,4.54,0,0,0,1.81,2,6,6,0,0,0,3.18.78,6.86,6.86,0,0,0,3.76-1,6.1,6.1,0,0,0,2.32-2.74,16.66,16.66,0,0,0,.77-6.06V52.69a6.5,6.5,0,0,0-.38-2.61,2.24,2.24,0,0,0-1-1.08,5.79,5.79,0,0,0-2.54-.46V47.8h9.38v.74h-.56A3.69,3.69,0,0,0,381,49a2.68,2.68,0,0,0-1.1,1.38,7.07,7.07,0,0,0-.26,2.31V63a26.73,26.73,0,0,1-.63,6.9A7.68,7.68,0,0,1,376,73.81a11.09,11.09,0,0,1-6.67,1.78,12.6,12.6,0,0,1-5.44-.94,8,8,0,0,1-3.71-3.29A11.34,11.34,0,0,1,359.05,66V52.69a9.6,9.6,0,0,0-.26-2.92,1.93,1.93,0,0,0-.9-.91,5.62,5.62,0,0,0-2.36-.32Z"/><path class="cls-1" d="M401.06,58.19l9.55,12a15.13,15.13,0,0,0,3.49,3.43,4.3,4.3,0,0,0,2.24.64V75H402.21v-.74a3.8,3.8,0,0,0,1.73-.42.91.91,0,0,0,.39-.74c0-.56-.62-1.62-1.84-3.17l-6.23-7.82-1,.84v7.4A8.47,8.47,0,0,0,395.5,73a2.09,2.09,0,0,0,.92.89,4.88,4.88,0,0,0,2.18.37V75H384.91v-.74h.9a3.74,3.74,0,0,0,1.9-.42,1.85,1.85,0,0,0,.8-1,8.16,8.16,0,0,0,.22-2.53V52.45a8.88,8.88,0,0,0-.22-2.61,2,2,0,0,0-.89-.91,3.6,3.6,0,0,0-1.81-.39h-.9V47.8h13.51v.74a4.49,4.49,0,0,0-2.1.4,1.92,1.92,0,0,0-.82.94,8,8,0,0,0-.24,2.57v8.44l10.07-8.14q2.1-1.71,2.1-2.73a1.35,1.35,0,0,0-.86-1.2,7.07,7.07,0,0,0-2.18-.28V47.8H415v.74a6.06,6.06,0,0,0-2.23.51A32.47,32.47,0,0,0,409,51.83Z"/><path class="cls-1" d="M433.67,67.22h-9.59l-1.14,2.64a6,6,0,0,0-.56,2.19,1.82,1.82,0,0,0,.92,1.68,7.93,7.93,0,0,0,2.66.48V75h-9v-.74a4.07,4.07,0,0,0,2.4-1.21,16.34,16.34,0,0,0,2.32-4.1l9.71-21.66h.38l9.79,22.26a13.57,13.57,0,0,0,2.3,4,3.19,3.19,0,0,0,1.92.72V75H432.63v-.74h.54a4.11,4.11,0,0,0,2.22-.44,1.06,1.06,0,0,0,.44-.92,2.43,2.43,0,0,0-.12-.74,14.85,14.85,0,0,0-.6-1.51ZM433,65.74l-4-9.35-4.17,9.35Z"/><path class="cls-1" d="M457.12,62.58v7.6a8.45,8.45,0,0,0,.27,2.78,2,2,0,0,0,.95.91,6.33,6.33,0,0,0,2.54.34V75H447v-.74a6.27,6.27,0,0,0,2.55-.35,2.07,2.07,0,0,0,.94-.91,8.38,8.38,0,0,0,.27-2.77V52.57a8.45,8.45,0,0,0-.27-2.78,2,2,0,0,0-1-.91,6.52,6.52,0,0,0-2.54-.34V47.8H459.6a27.68,27.68,0,0,1,7.21.68A7.25,7.25,0,0,1,470.53,51,6.73,6.73,0,0,1,472,55.29a6.4,6.4,0,0,1-2.16,5A9,9,0,0,1,466,62.12l6.53,9.19a14.36,14.36,0,0,0,1.82,2.22,3.39,3.39,0,0,0,1.9.68V75h-8.55L458.9,62.58Zm0-13.32v11.9h1.14a12.74,12.74,0,0,0,4.17-.52,4.14,4.14,0,0,0,2.17-1.84,6.78,6.78,0,0,0,.79-3.47,6.34,6.34,0,0,0-1.45-4.58q-1.45-1.48-4.68-1.49Z"/><path class="cls-1" d="M486.57,47.8,500,64.64V53a5.53,5.53,0,0,0-.7-3.31A3.9,3.9,0,0,0,496,48.54V47.8h9v.74a7,7,0,0,0-2.31.57,2.27,2.27,0,0,0-.92,1.14,7.56,7.56,0,0,0-.34,2.72v22.6h-.68L482.41,53V70.22c0,1.57.35,2.62,1.07,3.17a3.89,3.89,0,0,0,2.45.82h.64V75h-9.63v-.74a4.36,4.36,0,0,0,3.12-.92,4.3,4.3,0,0,0,.88-3.07V51.07l-.58-.72a5.2,5.2,0,0,0-1.52-1.43,4.73,4.73,0,0,0-1.9-.38V47.8Z"/><path class="cls-1" d="M520.32,67.22h-9.59l-1.14,2.64a5.76,5.76,0,0,0-.56,2.19,1.82,1.82,0,0,0,.92,1.68,7.93,7.93,0,0,0,2.66.48V75h-9v-.74A4.07,4.07,0,0,0,506,73a16.34,16.34,0,0,0,2.32-4.1L518,47.24h.38l9.79,22.26a13.57,13.57,0,0,0,2.3,4,3.17,3.17,0,0,0,1.92.72V75H519.28v-.74h.54a4.16,4.16,0,0,0,2.22-.44,1.08,1.08,0,0,0,.44-.92,2.43,2.43,0,0,0-.12-.74c0-.12-.23-.62-.6-1.51Zm-.68-1.48-4-9.35-4.17,9.35Z"/><path class="cls-1" d="M551.43,47.18l.22,9h-.82A9.24,9.24,0,0,0,548,50.76a7.13,7.13,0,0,0-4.91-2.08,4.67,4.67,0,0,0-3.24,1.09,3.35,3.35,0,0,0-1.19,2.52,3.06,3.06,0,0,0,.42,1.6,6.72,6.72,0,0,0,1.87,1.86,40.76,40.76,0,0,0,4.34,2.34q4.77,2.34,6.43,4.43a7.48,7.48,0,0,1,1.64,4.76,7.75,7.75,0,0,1-2.65,5.86,9.57,9.57,0,0,1-6.74,2.45,11,11,0,0,1-2.42-.26,18.11,18.11,0,0,1-2.87-1,4.23,4.23,0,0,0-1.58-.4,1.93,1.93,0,0,0-1.1.4,2.77,2.77,0,0,0-.94,1.22h-.74V65.32H535a11.84,11.84,0,0,0,3.39,6.6,8,8,0,0,0,5.42,2.27A5.09,5.09,0,0,0,547.41,73a3.77,3.77,0,0,0,1.33-2.85,3.73,3.73,0,0,0-.51-1.86,6,6,0,0,0-1.55-1.71A23.53,23.53,0,0,0,543,64.44a32.56,32.56,0,0,1-5.33-3.1,9.54,9.54,0,0,1-2.49-2.87,7.08,7.08,0,0,1-.87-3.48,7.39,7.39,0,0,1,2.38-5.53,8.34,8.34,0,0,1,6-2.28,10.38,10.38,0,0,1,2.56.32,13,13,0,0,1,2.29.89,5.23,5.23,0,0,0,1.9.65,1.07,1.07,0,0,0,.82-.32,3.88,3.88,0,0,0,.56-1.54Z"/><path class="cls-1" d="M200.46,107.58v7.6a8.45,8.45,0,0,0,.27,2.78,2,2,0,0,0,1,.91,6.42,6.42,0,0,0,2.55.34V120h-13.9v-.74a6.33,6.33,0,0,0,2.56-.35,2.13,2.13,0,0,0,.94-.91,8.38,8.38,0,0,0,.27-2.77V97.57a8.45,8.45,0,0,0-.27-2.78,2,2,0,0,0-1-.91,6.61,6.61,0,0,0-2.55-.34V92.8H203a27.65,27.65,0,0,1,7.2.68A7.28,7.28,0,0,1,213.88,96a6.73,6.73,0,0,1,1.44,4.29,6.4,6.4,0,0,1-2.16,5,9,9,0,0,1-3.87,1.87l6.53,9.19a14.36,14.36,0,0,0,1.82,2.22,3.42,3.42,0,0,0,1.9.68V120H211l-8.75-12.37Zm0-13.32v11.9h1.14a12.74,12.74,0,0,0,4.17-.52,4.14,4.14,0,0,0,2.17-1.84,6.68,6.68,0,0,0,.79-3.47,6.29,6.29,0,0,0-1.45-4.58q-1.46-1.48-4.68-1.49Z"/><path class="cls-1" d="M234.59,119.21V120h-14.2v-.74h.9a3.74,3.74,0,0,0,1.9-.42,1.86,1.86,0,0,0,.81-1,8.51,8.51,0,0,0,.22-2.53V97.45a9.26,9.26,0,0,0-.22-2.61,2.06,2.06,0,0,0-.9-.91,3.58,3.58,0,0,0-1.81-.39h-.9V92.8h14.2v.74h-.91a3.77,3.77,0,0,0-1.9.42,2,2,0,0,0-.82,1,8.21,8.21,0,0,0-.22,2.53V115.3a8.75,8.75,0,0,0,.23,2.61,2.12,2.12,0,0,0,.9.91,3.6,3.6,0,0,0,1.81.39Z"/><path class="cls-1" d="M252.28,103.19l9.55,12a15.13,15.13,0,0,0,3.49,3.43,4.3,4.3,0,0,0,2.24.64V120H253.42v-.74a3.81,3.81,0,0,0,1.74-.42.91.91,0,0,0,.39-.74c0-.56-.62-1.62-1.85-3.17l-6.22-7.82-1,.84v7.4a8.47,8.47,0,0,0,.24,2.65,2,2,0,0,0,.92.89,4.88,4.88,0,0,0,2.18.37V120H236.13v-.74h.9a3.74,3.74,0,0,0,1.9-.42,1.85,1.85,0,0,0,.8-1,8.16,8.16,0,0,0,.22-2.53V97.45a8.88,8.88,0,0,0-.22-2.61,2,2,0,0,0-.89-.91,3.6,3.6,0,0,0-1.81-.39h-.9V92.8h13.51v.74a4.49,4.49,0,0,0-2.1.4,1.92,1.92,0,0,0-.82.94,8,8,0,0,0-.24,2.57v8.44l10.07-8.14q2.1-1.71,2.1-2.73a1.35,1.35,0,0,0-.86-1.2,7.13,7.13,0,0,0-2.18-.28V92.8H266.2v.74a6.17,6.17,0,0,0-2.24.51,32.75,32.75,0,0,0-3.73,2.78Z"/><path class="cls-1" d="M286.15,92.18l.22,9h-.82a9.28,9.28,0,0,0-2.85-5.47,7.17,7.17,0,0,0-4.92-2.08,4.62,4.62,0,0,0-3.23,1.09,3.35,3.35,0,0,0-1.19,2.52,3.06,3.06,0,0,0,.42,1.6,6.81,6.81,0,0,0,1.86,1.86,42.42,42.42,0,0,0,4.35,2.34q4.75,2.34,6.42,4.43a7.42,7.42,0,0,1,1.64,4.76,7.71,7.71,0,0,1-2.65,5.86,9.55,9.55,0,0,1-6.74,2.45,11.08,11.08,0,0,1-2.42-.26,18,18,0,0,1-2.86-1,4.28,4.28,0,0,0-1.58-.4,1.91,1.91,0,0,0-1.1.4,2.77,2.77,0,0,0-.94,1.22H269V110.32h.75a11.71,11.71,0,0,0,3.39,6.6,8,8,0,0,0,5.41,2.27,5.11,5.11,0,0,0,3.58-1.22,3.8,3.8,0,0,0,1.33-2.85,3.73,3.73,0,0,0-.51-1.86,6,6,0,0,0-1.55-1.71,24.25,24.25,0,0,0-3.69-2.11,32.37,32.37,0,0,1-5.32-3.1,9.54,9.54,0,0,1-2.49-2.87A7.08,7.08,0,0,1,269,100a7.4,7.4,0,0,1,2.39-5.53,8.32,8.32,0,0,1,6-2.28,10.46,10.46,0,0,1,2.57.32,13.26,13.26,0,0,1,2.29.89,5.25,5.25,0,0,0,1.89.65,1,1,0,0,0,.82-.32,3.58,3.58,0,0,0,.56-1.54Z"/><path class="cls-1" d="M299.33,94.36v11.16h.78a6.88,6.88,0,0,0,2.94-.55,4.61,4.61,0,0,0,1.94-1.82,8.43,8.43,0,0,0,1-3.46h.7v13.63H306q-.39-3.85-2.07-5.09a6.38,6.38,0,0,0-3.84-1.23h-.78v8.3a8.75,8.75,0,0,0,.23,2.61,2.06,2.06,0,0,0,.9.91,3.6,3.6,0,0,0,1.81.39h.9V120H289v-.74h.9a3.74,3.74,0,0,0,1.9-.42,1.8,1.8,0,0,0,.8-1,8.16,8.16,0,0,0,.22-2.53V97.45a8.88,8.88,0,0,0-.22-2.61,2,2,0,0,0-.89-.91,3.58,3.58,0,0,0-1.81-.39H289V92.8h22.9v7.79h-.82a7.22,7.22,0,0,0-1.43-4.06,6.24,6.24,0,0,0-3.33-1.87,21.68,21.68,0,0,0-4.45-.3Z"/><path class="cls-1" d="M327.66,92.42a13.47,13.47,0,0,1,14.59,13.85,14.42,14.42,0,0,1-3,9.09q-4,5.2-11.31,5.21t-11.33-5a14.33,14.33,0,0,1-3.16-9.3,13.53,13.53,0,0,1,4.11-10.08A13.1,13.1,0,0,1,327.66,92.42Zm.24,1.28q-3.72,0-5.67,3.81-1.58,3.12-1.58,9,0,6.94,2.45,10.27a5.57,5.57,0,0,0,4.76,2.32,5.76,5.76,0,0,0,3.44-1,8.26,8.26,0,0,0,2.75-4.1,22.82,22.82,0,0,0,1-7.33,24.59,24.59,0,0,0-1-8.06,7.89,7.89,0,0,0-2.56-3.78A6,6,0,0,0,327.9,93.7Zm-3.78-8.91a2.55,2.55,0,0,1,1.89.79,2.67,2.67,0,1,1-4.56,1.88,2.68,2.68,0,0,1,2.67-2.67Zm7.48,0a2.55,2.55,0,0,1,1.9.79,2.67,2.67,0,1,1-4.56,1.88,2.68,2.68,0,0,1,2.66-2.67Z"/><path class="cls-1" d="M353,107.58v7.6a8.08,8.08,0,0,0,.28,2.78,2,2,0,0,0,.94.91,6.42,6.42,0,0,0,2.55.34V120H342.87v-.74a6.31,6.31,0,0,0,2.55-.35,2.13,2.13,0,0,0,.94-.91,8.38,8.38,0,0,0,.27-2.77V97.57a8.45,8.45,0,0,0-.27-2.78,2,2,0,0,0-.95-.91,6.55,6.55,0,0,0-2.54-.34V92.8h12.61a27.65,27.65,0,0,1,7.2.68A7.24,7.24,0,0,1,366.41,96a6.73,6.73,0,0,1,1.44,4.29,6.4,6.4,0,0,1-2.16,5,9,9,0,0,1-3.87,1.87l6.53,9.19a14.36,14.36,0,0,0,1.82,2.22,3.42,3.42,0,0,0,1.9.68V120h-8.54l-8.75-12.37Zm0-13.32v11.9h1.14a12.74,12.74,0,0,0,4.17-.52,4.1,4.1,0,0,0,2.17-1.84,6.68,6.68,0,0,0,.79-3.47,6.29,6.29,0,0,0-1.45-4.58c-1-1-2.52-1.49-4.67-1.49Z"/><path class="cls-1" d="M390.34,105.55a14,14,0,0,1,5.43,2.19,5.81,5.81,0,0,1,2.24,4.72,6.28,6.28,0,0,1-2.46,5.07q-3,2.41-8.79,2.42H373v-.74a6.33,6.33,0,0,0,2.56-.35,2.13,2.13,0,0,0,.94-.91,8.38,8.38,0,0,0,.27-2.77V97.57a8.45,8.45,0,0,0-.27-2.78,2,2,0,0,0-.95-.91,6.58,6.58,0,0,0-2.55-.34V92.8h13a18.51,18.51,0,0,1,6.6.83,6.88,6.88,0,0,1,3.07,2.49,6.19,6.19,0,0,1,1.12,3.51,5,5,0,0,1-1.42,3.49A10.24,10.24,0,0,1,390.34,105.55Zm-7.29,1v8.7l0,1a1.94,1.94,0,0,0,2.19,2.19,6.3,6.3,0,0,0,2.95-.71,4.87,4.87,0,0,0,2.07-2.07,6.29,6.29,0,0,0,.72-3,6.61,6.61,0,0,0-.88-3.41,4.73,4.73,0,0,0-2.42-2.11A13,13,0,0,0,383.05,106.58Zm0-1.57a10.29,10.29,0,0,0,4.2-.64,4.68,4.68,0,0,0,2.07-1.8,6.46,6.46,0,0,0,0-5.91,4.49,4.49,0,0,0-2-1.76,10.9,10.9,0,0,0-4.25-.58Z"/><path class="cls-1" d="M398.69,92.8h14v.74H412a5,5,0,0,0-2.18.33,1.94,1.94,0,0,0-.84.91,10.1,10.1,0,0,0-.25,2.91V111a13.64,13.64,0,0,0,.55,4.82,4.57,4.57,0,0,0,1.82,2,6,6,0,0,0,3.18.78,6.81,6.81,0,0,0,3.75-1,6,6,0,0,0,2.32-2.74,16.44,16.44,0,0,0,.77-6.06V97.69a6.32,6.32,0,0,0-.38-2.61,2.24,2.24,0,0,0-1-1.08,5.76,5.76,0,0,0-2.54-.46V92.8h9.39v.74h-.56a3.69,3.69,0,0,0-1.9.46,2.59,2.59,0,0,0-1.1,1.38,6.8,6.8,0,0,0-.26,2.31V108a26.73,26.73,0,0,1-.63,6.9,7.71,7.71,0,0,1-3.08,3.91,11.08,11.08,0,0,1-6.66,1.78,12.65,12.65,0,0,1-5.45-.94,8,8,0,0,1-3.7-3.29,11.34,11.34,0,0,1-1.08-5.38V97.69a9.6,9.6,0,0,0-.26-2.92,2,2,0,0,0-.91-.91,5.59,5.59,0,0,0-2.36-.32Z"/><path class="cls-1" d="M436.73,92.8l13.39,16.84V98a5.53,5.53,0,0,0-.7-3.31,3.9,3.9,0,0,0-3.22-1.12V92.8h9v.74a7,7,0,0,0-2.31.57,2.27,2.27,0,0,0-.92,1.14A7.56,7.56,0,0,0,451.6,98v22.6h-.68L432.57,98v17.25c0,1.57.35,2.62,1.07,3.17a3.89,3.89,0,0,0,2.45.82h.64V120H427.1v-.74a4.36,4.36,0,0,0,3.12-.92,4.3,4.3,0,0,0,.88-3.07V96.07l-.58-.72A5.2,5.2,0,0,0,429,93.92a4.73,4.73,0,0,0-1.9-.38V92.8Z"/><path class="cls-1" d="M456.52,120v-.74h.9a3.68,3.68,0,0,0,1.81-.37,2.29,2.29,0,0,0,.94-1,9.6,9.6,0,0,0,.18-2.53V97.45a9.26,9.26,0,0,0-.22-2.61,2.06,2.06,0,0,0-.9-.91,3.58,3.58,0,0,0-1.81-.39h-.9V92.8h12.15a19.44,19.44,0,0,1,7.83,1.32A11.57,11.57,0,0,1,482,99a15.64,15.64,0,0,1,.95,12.7,12.17,12.17,0,0,1-2.38,4,11.79,11.79,0,0,1-3.38,2.53,18.23,18.23,0,0,1-4.67,1.47,22.12,22.12,0,0,1-3.85.24Zm10.35-25.61v21.18a7.82,7.82,0,0,0,.16,2.07,1.21,1.21,0,0,0,.54.58,3.3,3.3,0,0,0,1.56.3,6.08,6.08,0,0,0,5.11-2.28q2.4-3.09,2.4-9.57A18.06,18.06,0,0,0,475,98.27a7,7,0,0,0-3.34-3.33A13.16,13.16,0,0,0,466.87,94.34Z"/><path class="cls-2" d="M83.37,80,113.9,49.13l3.5-5c2.3-4.15-.22-8.64-2.63-12L83,0,52.74,30.53c-2.19,2.95-4.6,5.79-4.93,9.51-.33,3.29,2,5.58,3.61,8Z"/><path class="cls-2" d="M131.07,49.56c-3.17-1.64-7.22-.43-9.84,1.65L83.37,88.84l-35.89-36C43.66,48.25,36.11,47.59,32,52L0,84.58l31.29,31.18,5,2.73c4.49,1.32,8.1-1.31,11.49-3.5L70.13,93.11l.33,54.16h26V93.44l.33-.33,21.55,21.33a17.9,17.9,0,0,0,7.66,4c3.39,1,6.13-1.09,8.86-2.62L167,84,134.79,52.08Z"/><path class="cls-3" d="M79.33,38.9V46a7.77,7.77,0,0,0,.25,2.58,1.8,1.8,0,0,0,.88.84,5.94,5.94,0,0,0,2.36.32v.69H69.92V49.7a5.74,5.74,0,0,0,2.37-.33,1.82,1.82,0,0,0,.87-.84A7.56,7.56,0,0,0,73.42,46V29.6A7.6,7.6,0,0,0,73.16,27a1.8,1.8,0,0,0-.88-.84,5.76,5.76,0,0,0-2.36-.32v-.69H81.63a25.6,25.6,0,0,1,6.69.63,6.68,6.68,0,0,1,3.46,2.34,6.25,6.25,0,0,1,1.34,4,5.94,5.94,0,0,1-2,4.61,8.2,8.2,0,0,1-3.59,1.73L93.58,47a13,13,0,0,0,1.7,2.07A3.16,3.16,0,0,0,97,49.7v.69H89.1L81,38.9Zm0-12.36v11h1.06a12,12,0,0,0,3.86-.47,3.85,3.85,0,0,0,2-1.72A6.22,6.22,0,0,0,87,32.17a5.93,5.93,0,0,0-1.34-4.26,5.92,5.92,0,0,0-4.35-1.37Z"/><path class="cls-3" d="M51.36,86.69l-1,8.84H28v-.68h.84a3.45,3.45,0,0,0,1.76-.39,1.71,1.71,0,0,0,.75-.9,7.86,7.86,0,0,0,.2-2.34V74.64a8.66,8.66,0,0,0-.2-2.42,1.91,1.91,0,0,0-.83-.84A3.38,3.38,0,0,0,28.87,71H28v-.69H41.47V71h-1.1a3.45,3.45,0,0,0-1.76.39,1.74,1.74,0,0,0-.76.89,7.48,7.48,0,0,0-.21,2.34V90.7a8.09,8.09,0,0,0,.22,2.46,1.45,1.45,0,0,0,.88.79,8.88,8.88,0,0,0,2.25.17h2.1a7,7,0,0,0,3.34-.71,6.15,6.15,0,0,0,2.32-2.23,17.86,17.86,0,0,0,1.85-4.49Z"/><path class="cls-3" d="M127.51,71.78V82.13h.73a6.46,6.46,0,0,0,2.73-.5,4.33,4.33,0,0,0,1.8-1.69,7.77,7.77,0,0,0,.95-3.22h.65V89.38h-.65q-.34-3.59-1.92-4.73a5.91,5.91,0,0,0-3.56-1.14h-.73v7.71a8,8,0,0,0,.22,2.42,1.91,1.91,0,0,0,.83.84,3.39,3.39,0,0,0,1.69.37h.83v.68H117.9v-.68h.84a3.52,3.52,0,0,0,1.77-.39,1.69,1.69,0,0,0,.74-.9,7.39,7.39,0,0,0,.21-2.34V74.64a8.14,8.14,0,0,0-.21-2.42,1.85,1.85,0,0,0-.83-.84,3.33,3.33,0,0,0-1.68-.36h-.84v-.69h21.27v7.23h-.76a6.74,6.74,0,0,0-1.33-3.77,5.79,5.79,0,0,0-3.1-1.73,19.67,19.67,0,0,0-4.12-.28Z"/></g></g></svg>